<svg xmlns="http://www.w3.org/2000/svg" width="1024" height="1024" viewBox="0 0 1024 1024" version="1.1"><path d="M 477 212.133 C 463.443 213.516, 440.682 217.920, 425.223 222.150 C 376.405 235.511, 327.791 264.803, 289.926 303.672 C 276.740 317.209, 273.546 321.107, 256.325 344.683 C 255.046 346.434, 254 348.309, 254 348.850 C 254 349.391, 253.648 349.983, 253.217 350.167 C 250.503 351.322, 228 394.273, 228 398.298 C 228 398.793, 227.355 400.616, 226.566 402.349 C 224.817 406.190, 220.732 418.358, 218.457 426.500 C 217.535 429.800, 216.174 434.525, 215.433 437 C 214.693 439.475, 213.385 445.325, 212.529 450 C 211.672 454.675, 210.478 460.750, 209.874 463.500 C 208.337 470.509, 207.627 523.934, 208.872 539 C 210.422 557.765, 212.122 566.523, 219.390 593.181 C 223.189 607.116, 234.686 634.121, 243.504 649.821 C 248.481 658.682, 260.055 676.433, 261.116 676.833 C 261.602 677.017, 262.007 677.692, 262.016 678.333 C 262.025 678.975, 263.262 680.934, 264.766 682.686 C 266.270 684.438, 268.625 687.352, 270 689.160 C 282.238 705.259, 304.430 727.669, 319.500 739.146 C 321.150 740.403, 322.725 741.703, 323 742.036 C 324.159 743.439, 342.910 756.442, 350.910 761.390 C 359.456 766.677, 368.033 771.301, 372.312 772.929 L 374.500 773.762 374.187 747.631 L 373.873 721.500 386.083 733.727 L 398.293 745.954 397.585 764.804 C 397.021 779.825, 397.144 783.859, 398.189 784.668 C 399.876 785.973, 413.664 791, 415.557 791 C 416.787 791, 417 785.748, 417 755.383 L 417 719.767 414.750 720.435 C 406.990 722.742, 400.593 721.893, 394.727 717.777 C 391.342 715.402, 388 709.121, 388 705.134 C 388 702.797, 386.553 700.791, 381 695.430 C 374.825 689.468, 374 688.238, 374 684.991 C 374 682.489, 374.686 680.700, 376.141 679.405 C 379.227 676.660, 381.956 670.134, 381.956 665.500 C 381.956 660.989, 378.967 653.671, 375.688 650.153 C 367.572 641.446, 350.748 642.238, 344.678 651.612 C 343.480 653.462, 342.040 654.981, 341.479 654.988 C 340.917 654.994, 337.429 651.657, 333.729 647.571 L 327 640.142 327 618.071 L 327 596 335.226 596 L 343.453 596 392.726 645.236 L 442 694.473 442 746.566 L 442 798.659 449.750 800.277 C 454.012 801.167, 462.006 802.194, 467.513 802.560 L 477.526 803.224 477.148 737.423 L 476.770 671.621 481.635 675.725 C 484.311 677.982, 488.227 681.615, 490.338 683.797 L 494.176 687.765 494.049 745.882 L 493.921 804 503.298 804 L 512.675 804 513.338 764.836 C 513.702 743.296, 514 717.073, 514 706.563 L 514 687.453 522 679.500 L 530 671.547 530 736.773 L 530 802 537.750 801.940 C 542.013 801.908, 547.750 801.467, 550.500 800.962 C 553.250 800.456, 557.750 799.746, 560.500 799.384 C 563.250 799.022, 565.961 798.366, 566.525 797.927 C 567.089 797.488, 569.911 796.815, 572.797 796.432 C 575.684 796.050, 578.286 795.346, 578.581 794.868 C 578.877 794.391, 580.064 794, 581.221 794 C 582.378 794, 585.839 793.267, 588.912 792.372 C 595.064 790.579, 594.952 790.616, 603.500 787.559 L 609.500 785.413 609.770 765.345 L 610.041 745.277 621.270 734.389 L 632.500 723.500 632.767 748.692 L 633.034 773.884 636.267 772.766 C 640.757 771.214, 656.542 762.018, 668.602 753.929 C 683.927 743.650, 697.324 732.586, 711.660 718.367 C 726.726 703.424, 729.656 700.165, 738.192 688.855 C 754.644 667.054, 761.357 656.179, 772.052 634 C 775.368 627.125, 778.512 620.719, 779.040 619.764 C 779.568 618.809, 780 617.527, 780 616.915 C 780 616.303, 780.656 614.384, 781.457 612.651 C 784.903 605.197, 790.723 584.768, 794.890 565.500 C 801.363 535.567, 801.188 481.803, 794.510 449.500 C 792.910 441.757, 790.568 432.102, 789.346 428.215 C 788.606 425.858, 788 423.265, 788 422.451 C 788 421.638, 787.579 420.191, 787.065 419.236 C 786.550 418.281, 784.924 413.900, 783.451 409.500 C 780.948 402.027, 779.809 399.051, 776.562 391.500 C 772.947 383.095, 760.612 359.415, 756.539 353.061 C 750.002 342.862, 735.972 324.025, 727.446 314 C 717.259 302.021, 696.074 281.830, 687.691 276.111 C 686.486 275.289, 685.275 274.341, 685 274.006 C 684.725 273.670, 680.675 270.645, 676 267.284 C 633.324 236.602, 580.440 217.056, 526.500 212.027 C 513.705 210.834, 489.217 210.887, 477 212.133 M 482 243.689 C 435.624 247.190, 387.084 266.567, 344.136 298.725 C 329.986 309.320, 306.211 332.846, 295.847 346.508 C 282.094 364.638, 268.137 387.755, 260.622 404.857 C 251.326 426.008, 242.508 460.275, 240.413 483.393 L 239.723 491.014 243.329 489.507 C 251.848 485.948, 262.076 489.051, 267.487 496.836 C 270.161 500.685, 270.500 501.986, 270.500 508.414 C 270.500 514.772, 270.165 516.095, 267.752 519.258 C 263.191 525.238, 259.340 527.384, 252.369 527.827 C 248.010 528.105, 245.197 527.746, 242.949 526.624 L 239.744 525.026 240.424 532.263 C 242.717 556.650, 249.134 583.504, 257.862 605.238 C 270.462 636.611, 293.059 669.205, 321.135 696.500 C 333.275 708.304, 352.734 725, 354.349 725 C 354.707 725, 355 715.865, 355 704.701 L 355 684.402 351.596 683.171 C 348.090 681.903, 343.745 677.089, 342.026 672.568 C 341.133 670.221, 340.553 670, 335.275 669.994 L 329.500 669.989 318.750 658.571 L 308 647.154 308 615.633 C 308 574.919, 306.304 577.324, 335.210 577.050 L 350.345 576.907 403.453 629.953 C 432.663 659.129, 456.998 683, 457.531 683 C 458.107 683, 458.550 676.964, 458.624 668.100 L 458.749 653.201 393.555 588.101 L 328.361 523 307.615 523 C 295.803 523, 286.070 522.573, 285.014 522.008 C 282.113 520.455, 280.610 514.710, 282.003 510.492 C 282.639 508.563, 283.995 506.538, 285.014 505.992 C 286.096 505.414, 297.049 505, 311.294 505 L 335.719 505 397.057 566 C 430.793 599.550, 458.531 627, 458.698 627 C 458.864 627, 459 620.117, 459 611.705 L 459 596.410 435.577 573.266 C 422.694 560.537, 410.206 548.916, 407.827 547.443 C 399.294 542.159, 394 535.768, 394 530.751 C 394 529.019, 388.158 522.598, 371.750 506.293 C 352.270 486.937, 349.004 484.091, 345.514 483.437 C 343.322 483.025, 328.646 482.971, 312.901 483.315 L 284.274 483.941 279.148 481.386 C 257.895 470.796, 257.950 440.177, 279.241 429.567 C 285.962 426.218, 296.263 425.981, 302.562 429.030 C 312.445 433.814, 319.081 444.180, 319.133 454.912 C 319.148 458.214, 318.870 461.835, 318.513 462.958 C 317.876 464.966, 318.189 465, 337.122 465 L 356.379 465 380.560 488.999 L 404.741 512.997 409.131 512.396 C 415.477 511.526, 421.268 513.402, 424.859 517.493 C 428.658 521.819, 429.572 526.448, 427.957 533.178 L 426.702 538.410 451.858 562.955 L 477.015 587.500 477.007 597.609 C 477 607.525, 477.062 607.796, 480.250 611.755 C 482.038 613.974, 486.088 618.133, 489.250 620.996 L 495 626.201 495 523.789 L 495 421.378 489.750 420.070 C 475.601 416.543, 461.901 404.501, 456.020 390.420 C 445.548 365.342, 456.406 335.732, 480.192 324.508 C 510.327 310.287, 546.865 326.391, 553.915 357 C 555.406 363.474, 555.212 377.613, 553.547 383.869 C 548.572 402.563, 534.160 416.511, 515.750 420.450 L 513 421.038 513 473.128 L 513 525.218 521.229 516.859 C 525.754 512.262, 529.917 507.289, 530.479 505.809 C 531.488 503.149, 540.260 493.804, 559.727 474.649 L 569.739 464.798 573.619 468.940 C 575.754 471.218, 579.209 473.666, 581.299 474.379 L 585.098 475.676 567.799 492.518 L 550.500 509.360 550 526.930 L 549.500 544.500 531.250 562.400 L 513 580.300 513 602.650 C 513 615.156, 513.395 625, 513.896 625 C 514.389 625, 518.214 621.363, 522.396 616.917 L 530 608.834 530 598.674 L 530 588.514 555.478 563.007 L 580.955 537.500 579.420 533.069 C 575.253 521.040, 584.502 510.705, 597.873 512.450 L 602.500 513.054 627.204 489.027 L 651.909 465 670.874 465 L 689.839 465 688.809 461.270 C 685.644 449.807, 692.695 435.321, 704.241 429.567 C 717.909 422.756, 735.343 429.434, 741.923 444 C 744.400 449.484, 744.730 461.317, 742.551 466.532 C 737.155 479.447, 724.282 485.865, 707.616 483.949 C 698.270 482.874, 663.372 482.796, 660.719 483.844 C 659.739 484.231, 648.602 494.420, 635.969 506.486 C 617.561 524.069, 613 528.939, 613 531.016 C 613 535.465, 607.611 542.637, 601.793 545.932 C 598.417 547.843, 587.898 557.443, 572.750 572.437 L 549 595.945 549 611.793 L 549 627.642 610.250 566.314 L 671.500 504.986 696.639 504.993 C 719.902 504.999, 721.955 505.143, 724.139 506.913 C 726.081 508.486, 726.487 509.724, 726.427 513.888 C 726.378 517.314, 725.763 519.605, 724.522 520.975 C 722.789 522.891, 721.510 523, 700.820 523 L 678.950 523 613.975 587.648 L 549 652.295 549.011 668.398 L 549.023 684.500 602.669 630.750 L 656.316 577 672.408 577.006 C 681.259 577.009, 690.141 577.467, 692.147 578.024 C 698.966 579.918, 699 580.107, 699 616.232 L 699 648.534 688.250 659.193 C 677.636 669.717, 677.427 669.861, 671.782 670.537 C 667.342 671.069, 665.926 671.659, 665.444 673.177 C 664.466 676.258, 659.299 681.633, 656.005 682.998 L 653 684.243 653 704.657 C 653 723.796, 653.109 725.011, 654.750 724.113 C 663.598 719.275, 698.764 685.600, 711.341 669.921 C 732.020 644.142, 748.602 612.537, 757.457 582.027 C 760.903 570.153, 766.182 543.027, 767.426 530.800 L 768.006 525.100 764.282 526.655 C 759.551 528.632, 751.658 528.053, 746.410 525.344 C 739.026 521.533, 734.823 512.073, 736.926 504 C 739.510 494.078, 748.348 487.513, 758 488.344 C 761.025 488.604, 764.527 489.139, 765.782 489.533 C 767.940 490.211, 768.036 490.040, 767.550 486.375 C 760.830 435.683, 748.488 400.707, 724.262 363.707 C 680.870 297.436, 604.551 251.247, 526.500 244.020 C 516.299 243.076, 492.475 242.898, 482 243.689 M 495.535 261.104 C 492.503 263.765, 492 264.828, 492 268.569 C 492 276.490, 499.848 282.523, 506.750 279.908 C 519.350 275.135, 516.251 258.017, 502.785 258.004 C 500.052 258.001, 498.135 258.821, 495.535 261.104 M 456.619 274.985 C 444.774 278.735, 442.353 295.411, 452.640 302.401 C 462.156 308.867, 474.647 302.734, 475.770 291.044 C 476.849 279.810, 467.127 271.658, 456.619 274.985 M 538.500 275.861 C 534.286 278.464, 532.354 280.927, 531.203 285.167 C 529.587 291.117, 531.419 297.243, 536.072 301.446 C 539.546 304.585, 540.631 305, 545.355 305 C 554.756 305, 560.995 298.597, 560.998 288.944 C 561 283.899, 558.141 279.052, 553.270 275.840 C 549.632 273.441, 542.401 273.451, 538.500 275.861 M 403.030 288.583 C 398.069 290.735, 396.034 292.824, 393.368 298.500 C 390.470 304.671, 390.266 312.787, 392.865 318.509 C 394.776 322.716, 400.660 328.540, 404.459 329.984 C 407.528 331.151, 407.984 337.026, 407.993 375.532 L 408 406.563 443.500 441.916 L 479 477.268 479 464.104 L 479 450.941 452.529 424.220 L 426.058 397.500 426.029 361.759 L 426 326.017 429.459 321.486 C 435.442 313.648, 435.591 304.346, 429.861 296.370 C 425.363 290.108, 419.422 286.988, 412.093 287.039 C 409.017 287.061, 404.938 287.756, 403.030 288.583 M 585.227 289.116 C 572.404 295.464, 569.082 311.656, 578.348 322.644 L 581 325.789 581 361.720 L 581 397.650 554.547 424.575 L 528.094 451.500 528.047 464.488 L 528 477.476 543.638 461.988 C 552.238 453.470, 568.435 437.275, 579.631 426 L 599.987 405.500 599.996 368.500 L 600.006 331.500 604.753 329 C 610.327 326.064, 615.478 319.047, 616.501 312.996 C 618.065 303.738, 612.198 292.812, 603.556 288.886 C 598.051 286.386, 590.553 286.480, 585.227 289.116 M 348.481 324.394 C 345.052 325.888, 339.326 332.013, 337.933 335.676 C 335.781 341.338, 337.620 350.711, 341.788 355.320 C 346.163 360.157, 356.338 362.811, 362.446 360.707 C 371.710 357.516, 377.485 347.230, 375.063 338.235 C 372.553 328.911, 365.343 323.015, 356.500 323.056 C 353.750 323.068, 350.142 323.670, 348.481 324.394 M 642.500 324.890 C 629.389 330.941, 627.283 347.017, 638.330 356.716 C 643.248 361.035, 648.842 362.477, 654.969 361.007 C 663.967 358.849, 670 351.486, 670 342.664 C 670 336.794, 668.625 333.290, 664.689 329.131 C 658.784 322.892, 650.330 321.276, 642.500 324.890 M 492.205 339.834 C 470.540 347.563, 464.083 375.117, 479.913 392.290 C 492.400 405.837, 516.003 405.698, 528.300 392.006 C 536.475 382.904, 538.862 368.457, 534.037 357.286 C 531.345 351.054, 523.889 343.728, 517.217 340.760 C 510.525 337.782, 499.139 337.361, 492.205 339.834 M 497.637 352.465 C 489.982 355.194, 485 361.929, 485 369.549 C 485 381.737, 496.506 391.152, 507.731 388.149 C 513.877 386.506, 517.618 383.659, 520.195 378.666 C 524.946 369.460, 521.232 357.904, 512.026 353.250 C 506.964 350.691, 503.192 350.485, 497.637 352.465 M 383 354 C 381.900 355.100, 381 357.145, 381 358.545 C 381 361.623, 385.110 366, 388 366 C 390.890 366, 395 361.623, 395 358.545 C 395 355.110, 391.674 352, 388 352 C 386.333 352, 384.111 352.889, 383 354 M 613.557 354.223 C 609.157 360.504, 615.332 367.948, 622.056 364.471 C 624.909 362.996, 625.516 361.632, 625.135 357.553 C 624.634 352.171, 616.610 349.863, 613.557 354.223 M 308.923 357.923 C 303.694 363.152, 305.819 372.734, 312.585 374.432 C 318.316 375.870, 325 370.869, 325 365.143 C 325 361.719, 322.764 357.929, 319.855 356.425 C 315.567 354.207, 312.174 354.672, 308.923 357.923 M 686.831 356.530 C 683.736 358.210, 681.615 363.617, 682.565 367.402 C 683.474 371.025, 688.503 375, 692.177 375 C 694.303 375, 696.247 373.953, 698.728 371.472 C 701.940 368.260, 702.205 367.566, 701.690 363.724 C 700.684 356.228, 693.654 352.824, 686.831 356.530 M 356.612 379.146 C 350.279 380.089, 345.285 384.065, 341.750 390.979 C 338.347 397.636, 338.240 402.826, 341.367 409.541 C 343.709 414.572, 348.962 420, 351.487 420 C 352.441 420, 353.027 422.483, 353.547 428.724 L 354.274 437.448 366.782 449.474 C 384.930 466.922, 383.455 466.633, 382.653 452.588 L 381.982 440.836 376.491 435.818 C 371.223 431.003, 371 430.594, 371 425.746 C 371 421.066, 371.362 420.310, 375.915 415.496 C 384.122 406.819, 385.049 397.749, 378.693 388.316 C 373.516 380.634, 366.418 377.686, 356.612 379.146 M 642.089 379.176 C 625.061 382.165, 618.922 405.874, 632.394 416.623 C 635.754 419.304, 636 419.877, 636 425.034 C 636 430.417, 635.850 430.717, 630.500 436 L 625 441.432 625 452.799 C 625 459.420, 625.390 464.027, 625.935 463.833 C 626.449 463.650, 632.974 457.493, 640.435 450.151 L 654 436.801 654 429.149 L 654 421.496 658.750 417.998 C 677.659 404.072, 665.232 375.115, 642.089 379.176 M 310.923 398.923 C 302.878 406.968, 312.428 420.379, 323.064 415.974 C 329.417 413.342, 331.081 403.927, 326.077 398.923 C 323.684 396.530, 322.310 396, 318.500 396 C 314.690 396, 313.316 396.530, 310.923 398.923 M 682.360 397.460 C 677.018 401.202, 676.888 410.045, 682.111 414.440 C 686.325 417.986, 691.008 417.858, 695.234 414.082 C 698.038 411.577, 698.500 410.504, 698.500 406.500 C 698.500 402.496, 698.038 401.423, 695.234 398.918 C 691.537 395.614, 685.906 394.977, 682.360 397.460 M 278.250 399.491 C 276.462 400.268, 274.966 401.263, 274.923 401.702 C 274.881 402.141, 274.689 403.338, 274.496 404.361 C 273.944 407.285, 276.001 410.758, 279.027 412.011 C 284.443 414.255, 290.284 408.621, 288.470 402.904 C 288.133 401.845, 286.563 400.308, 284.979 399.489 C 281.592 397.737, 282.285 397.737, 278.250 399.491 M 720.455 400.455 C 715.038 405.871, 718.964 412.679, 727.179 412.115 C 732.333 411.762, 733.819 403.576, 729.365 400.073 C 725.905 397.351, 723.453 397.456, 720.455 400.455 M 284.873 444.684 C 281.107 447.021, 279 451.146, 279 456.182 C 279 461.176, 280.850 464.354, 285.011 466.506 C 293.284 470.784, 303.993 464.574, 303.993 455.500 C 303.993 446.355, 292.581 439.900, 284.873 444.684 M 707.400 446.400 C 704.508 449.292, 704 450.495, 704 454.450 C 704 463.155, 708.672 468, 717.068 468 C 720.598 468, 721.848 467.387, 725.244 463.991 C 729.098 460.138, 729.234 459.782, 728.755 454.803 C 728.337 450.447, 727.683 449.098, 724.643 446.312 C 721.537 443.465, 720.311 443, 715.915 443 C 711.431 443, 710.380 443.420, 707.400 446.400 M 420.500 452.789 C 419.400 453.015, 417.488 454.133, 416.250 455.274 C 409.664 461.347, 418.665 472.617, 425.837 467.278 C 433.124 461.853, 429.133 451.019, 420.500 452.789 M 582.308 452.988 C 578.877 454.404, 576.715 458.428, 577.491 461.958 C 578.345 465.847, 581.448 468, 586.199 468 C 590.217 468, 592.244 466.028, 593.505 460.891 C 594.740 455.863, 587.583 450.811, 582.308 452.988 M 433.755 469.523 C 431.418 472.209, 428.754 474.108, 426.568 474.646 L 423.094 475.500 440.047 492.683 L 457 509.866 457 527.202 L 457 544.538 467 554.500 L 477 564.462 477 534.639 L 477 504.816 461.934 489.158 C 453.648 480.546, 444.754 471.645, 442.169 469.377 L 437.468 465.254 433.755 469.523 M 281.380 538.008 C 272.875 539.230, 266.848 545.947, 266.199 554.926 C 264.774 574.630, 289.414 581.864, 300.735 565.065 C 305.701 557.696, 301.869 544.247, 293.524 539.752 C 290.319 538.026, 285.785 537.375, 281.380 538.008 M 713.530 540.282 C 701.255 547.234, 701.228 564.361, 713.480 571.541 C 724.547 578.027, 739.637 571.175, 741.653 558.748 C 742.733 552.096, 737.961 542.583, 731.998 539.499 C 727.542 537.195, 718.287 537.587, 713.530 540.282 M 323.117 541.631 C 314.979 547.330, 318.920 561, 328.701 561 C 333.179 561, 335.634 559.609, 337.490 556.020 C 340.013 551.141, 339.427 547.227, 335.600 543.400 C 331.736 539.536, 327.055 538.872, 323.117 541.631 M 673.763 541.565 C 667.336 545.052, 666.489 553.709, 672.111 558.440 C 680.903 565.838, 693.158 554.995, 687.047 545.225 C 683.894 540.183, 678.864 538.797, 673.763 541.565 M 614.500 644.649 L 566 693.299 566 725.355 L 566 757.411 578.359 745.455 L 590.717 733.500 590.859 726.633 C 590.995 720.007, 591.079 719.790, 593.250 720.435 C 598.871 722.106, 603.036 722.149, 607.746 720.584 C 614.852 718.224, 618.954 713.091, 620.555 704.558 C 621.101 701.647, 622.716 699.296, 627.055 695.093 C 634.060 688.306, 635.353 683.777, 631.578 679.252 C 624.873 671.218, 624.078 662.599, 629.250 654.020 C 636.730 641.612, 653.586 640.396, 662.819 651.597 L 665.997 655.453 673.499 648.001 L 681 640.550 681 618.275 L 681 596 672 596 L 662.999 596 614.500 644.649 M 277.750 598.080 C 275.582 599.343, 273 604.191, 273 607 C 273 615.692, 283.932 620.222, 290.077 614.077 C 296.382 607.772, 291.984 596.957, 283.144 597.030 C 281.140 597.047, 278.712 597.519, 277.750 598.080 M 717.923 599.923 C 713.696 604.150, 713.868 609.068, 718.400 613.600 C 726.787 621.987, 738.980 612.597, 733.490 601.980 C 730.440 596.083, 722.776 595.070, 717.923 599.923 M 598.014 690.098 C 596.055 690.517, 593.318 692.199, 591.764 693.938 C 587.052 699.212, 588.460 708.450, 594.588 712.465 C 598.305 714.901, 606.172 714.127, 609.504 710.997 C 618.837 702.228, 610.678 687.387, 598.014 690.098 M 400.241 691.325 C 396.661 693.313, 394.833 696.728, 394.833 701.427 C 394.833 707.242, 397.134 711.361, 401.553 713.458 C 406.139 715.634, 410.490 714.910, 414.864 711.243 C 420.662 706.381, 420.197 696.412, 413.964 691.974 C 410.777 689.705, 403.756 689.373, 400.241 691.325 M 70.532 890.250 L 68.952 892.500 75.636 892.799 C 80.304 893.008, 82.570 892.707, 83.145 891.799 C 85.066 888.770, 84.035 888, 78.057 888 C 73.028 888, 71.870 888.346, 70.532 890.250 M 757.241 889.986 C 756.558 891.079, 756 892.225, 756 892.532 C 756 892.840, 759.038 892.958, 762.750 892.796 C 768.883 892.527, 769.529 892.294, 769.820 890.250 C 770.120 888.137, 769.783 888, 764.310 888 C 759.577 888, 758.248 888.374, 757.241 889.986 M 150 892 C 148.922 892.697, 149.907 892.969, 153.500 892.969 C 157.093 892.969, 158.078 892.697, 157 892 C 156.175 891.467, 154.600 891.031, 153.500 891.031 C 152.400 891.031, 150.825 891.467, 150 892 M 614 892 C 612.922 892.697, 613.907 892.969, 617.500 892.969 C 621.093 892.969, 622.078 892.697, 621 892 C 620.175 891.467, 618.600 891.031, 617.500 891.031 C 616.400 891.031, 614.825 891.467, 614 892 M 66.655 896.829 C 65.745 897.835, 65 898.960, 65 899.329 C 65 899.698, 69.002 900, 73.893 900 C 81.080 900, 82.902 899.697, 83.393 898.418 C 84.582 895.319, 83.906 895, 76.155 895 C 69.825 895, 67.990 895.353, 66.655 896.829 M 139.250 896.657 C 138.012 897.530, 137 898.639, 137 899.122 C 137 899.605, 143.331 900, 151.070 900 C 165.088 900, 165.138 899.992, 164.820 897.750 C 164.511 895.580, 164.090 895.492, 153 895.285 C 143.855 895.114, 141.039 895.395, 139.250 896.657 M 227.035 896.934 C 226.466 897.998, 226 899.123, 226 899.434 C 226 899.745, 229.375 900, 233.500 900 C 237.625 900, 241 899.587, 241 899.082 C 241 898.577, 241.273 897.452, 241.607 896.582 C 242.125 895.231, 241.180 895, 235.142 895 C 229.174 895, 227.909 895.302, 227.035 896.934 M 294.035 896.934 C 293.466 897.998, 293 899.123, 293 899.434 C 293 899.745, 300.200 900, 309 900 C 318.050 900, 325 899.601, 325 899.082 C 325 895.232, 324.115 895, 309.428 895 C 296.256 895, 294.985 895.160, 294.035 896.934 M 374.035 896.934 C 373.466 897.998, 373 899.123, 373 899.434 C 373 899.745, 380.353 900, 389.339 900 L 405.679 900 406.818 897.500 L 407.957 895 391.514 895 C 376.280 895, 374.994 895.142, 374.035 896.934 M 450.607 896.582 C 449.380 899.780, 450.052 900.082, 457.750 899.792 C 464.922 899.522, 465.524 899.332, 465.820 897.250 C 466.126 895.089, 465.844 895, 458.677 895 C 452.794 895, 451.085 895.335, 450.607 896.582 M 485.655 896.829 C 484.745 897.835, 484 898.960, 484 899.329 C 484 899.698, 487.528 900, 491.839 900 C 499.231 900, 499.744 899.857, 500.818 897.500 L 501.957 895 494.634 895 C 488.809 895, 486.971 895.374, 485.655 896.829 M 544.607 896.582 C 543.437 899.632, 544.050 900, 550.300 900 C 556.494 900, 559 898.934, 559 896.300 C 559 894.232, 545.407 894.498, 544.607 896.582 M 603.250 896.657 C 602.013 897.530, 601 898.639, 601 899.122 C 601 899.605, 607.331 900, 615.070 900 C 629.088 900, 629.138 899.992, 628.820 897.750 C 628.511 895.580, 628.090 895.492, 617 895.285 C 607.855 895.114, 605.039 895.395, 603.250 896.657 M 753.035 896.934 C 752.466 897.998, 752 899.141, 752 899.473 C 752 899.806, 755.938 899.948, 760.750 899.789 C 768.961 899.518, 769.520 899.361, 769.820 897.250 C 770.128 895.077, 769.865 895, 762.105 895 C 755.185 895, 753.927 895.268, 753.035 896.934 M 824.607 896.582 C 823.437 899.632, 824.050 900, 830.300 900 C 836.494 900, 839 898.934, 839 896.300 C 839 894.232, 825.407 894.498, 824.607 896.582 M 889.035 896.934 C 888.466 897.998, 888 899.123, 888 899.434 C 888 899.745, 891.134 900, 894.965 900 C 900.827 900, 902.093 899.694, 902.965 898.066 C 903.534 897.002, 904 895.877, 904 895.566 C 904 895.255, 900.866 895, 897.035 895 C 891.173 895, 889.907 895.306, 889.035 896.934 M 942 897.500 C 942 899.944, 942.167 900, 949.500 900 C 956.833 900, 957 899.944, 957 897.500 C 957 895.056, 956.833 895, 949.500 895 C 942.167 895, 942 895.056, 942 897.500 M 964.035 896.934 C 963.466 897.998, 963 899.123, 963 899.434 C 963 899.745, 966.072 900, 969.826 900 C 975.813 900, 976.940 899.693, 979 897.500 L 981.349 895 973.209 895 C 966.186 895, 964.928 895.265, 964.035 896.934 M 63.025 903.474 C 59.921 906.778, 61.107 907.150, 73.571 906.788 L 83.500 906.500 83.816 903.750 L 84.133 901 74.741 901 C 66.042 901, 65.177 901.183, 63.025 903.474 M 134.039 903.189 C 132.918 904.392, 132 905.721, 132 906.142 C 132 906.563, 139.762 906.815, 149.250 906.703 L 166.500 906.500 166.816 903.750 L 167.133 901 151.605 901 C 136.920 901, 135.967 901.119, 134.039 903.189 M 223.655 902.829 C 220.423 906.400, 221.534 907, 231.383 907 C 240.175 907, 240.803 906.863, 241.335 904.826 C 241.648 903.631, 241.674 902.281, 241.393 901.826 C 241.112 901.372, 237.378 901, 233.096 901 C 226.823 901, 224.988 901.355, 223.655 902.829 M 292.161 903.547 C 291.522 904.948, 291 906.257, 291 906.455 C 291 906.654, 298.830 906.828, 308.401 906.842 C 325.266 906.867, 325.818 906.803, 326.352 904.760 C 326.656 903.601, 326.674 902.281, 326.393 901.826 C 326.112 901.372, 318.556 901, 309.601 901 L 293.321 901 292.161 903.547 M 372.161 903.547 C 371.522 904.948, 371 906.333, 371 906.625 C 371 906.917, 378.313 906.847, 387.250 906.471 C 400.102 905.930, 403.755 905.464, 404.718 904.246 C 405.388 903.399, 405.699 902.322, 405.409 901.853 C 405.119 901.384, 397.781 901, 389.101 901 L 373.321 901 372.161 903.547 M 449.035 902.934 C 447.051 906.642, 447.742 907, 456.883 907 C 465.162 907, 465.805 906.852, 466.335 904.826 C 466.648 903.631, 466.674 902.281, 466.393 901.826 C 466.112 901.372, 462.324 901, 457.976 901 C 451.183 901, 449.925 901.272, 449.035 902.934 M 481.165 903.324 C 479.964 904.602, 479.286 905.952, 479.658 906.324 C 480.029 906.696, 484.236 907, 489.006 907 C 497.191 907, 497.741 906.865, 498.773 904.600 C 499.374 903.280, 499.596 901.930, 499.266 901.600 C 498.937 901.270, 495.220 901, 491.008 901 C 484.285 901, 483.082 901.284, 481.165 903.324 M 543.035 902.934 C 541.131 906.492, 541.809 907, 548.465 907 C 553.833 907, 555.105 906.672, 555.965 905.066 C 557.869 901.508, 557.191 901, 550.535 901 C 545.167 901, 543.895 901.328, 543.035 902.934 M 598.039 903.189 C 596.918 904.392, 596 905.721, 596 906.142 C 596 906.563, 603.763 906.815, 613.250 906.703 L 630.500 906.500 630.816 903.750 L 631.133 901 615.605 901 C 600.920 901, 599.967 901.119, 598.039 903.189 M 749.655 902.829 C 746.263 906.577, 747.426 907.083, 758.750 906.784 L 769.500 906.500 769.816 903.750 L 770.133 901 760.721 901 C 752.874 901, 751.035 901.304, 749.655 902.829 M 823.035 902.934 C 821.131 906.492, 821.809 907, 828.465 907 C 833.833 907, 835.105 906.672, 835.965 905.066 C 837.869 901.508, 837.191 901, 830.535 901 C 825.167 901, 823.895 901.328, 823.035 902.934 M 887.598 903.163 C 886.765 904.353, 886.316 905.703, 886.601 906.163 C 886.885 906.623, 890.001 907, 893.524 907 C 898.834 907, 900.107 906.669, 900.965 905.066 C 902.868 901.509, 902.191 901, 895.557 901 C 890.085 901, 888.885 901.326, 887.598 903.163 M 943.667 901.667 C 943.300 902.033, 943 903.370, 943 904.638 C 943 906.936, 943.039 906.942, 957.223 906.935 C 970.312 906.929, 971.626 906.761, 973.693 904.819 C 974.928 903.659, 975.701 902.325, 975.410 901.855 C 975.120 901.385, 972.125 901, 968.755 901 C 963.841 901, 962.171 901.430, 960.314 903.174 L 958 905.349 958 903.174 C 958 901.154, 957.516 901, 951.167 901 C 947.408 901, 944.033 901.300, 943.667 901.667 M 58.695 910.542 C 56.245 913.907, 57.113 914.126, 71.558 913.783 L 83.500 913.500 83.816 910.750 L 84.133 908 72.316 908.031 C 60.908 908.062, 60.438 908.148, 58.695 910.542 M 130.598 910.163 C 129.765 911.353, 129.316 912.703, 129.601 913.163 C 129.885 913.623, 132.965 914, 136.444 914 C 142.007 914, 142.958 913.712, 144.333 911.615 C 145.193 910.303, 145.619 908.953, 145.281 908.615 C 144.943 908.277, 141.842 908, 138.390 908 C 133.089 908, 131.878 908.336, 130.598 910.163 M 152.227 910.400 C 151.626 911.720, 151.404 913.070, 151.734 913.400 C 152.063 913.730, 155.168 914, 158.631 914 C 163.835 914, 165.110 913.664, 165.965 912.066 C 167.885 908.479, 167.201 908, 160.161 908 C 153.911 908, 153.227 908.207, 152.227 910.400 M 219.655 909.829 C 216.323 913.510, 217.466 914, 229.393 914 C 238.859 914, 240.889 913.733, 241.393 912.418 C 242.989 908.258, 242.420 908, 231.655 908 C 222.903 908, 221.055 908.282, 219.655 909.829 M 290.207 910.041 C 288.276 913.132, 289.547 914, 296.002 914 C 300.949 914, 302.135 913.646, 303.443 911.777 C 304.299 910.555, 305 909.205, 305 908.777 C 305 908.350, 301.958 908, 298.241 908 C 292.519 908, 291.285 908.313, 290.207 910.041 M 311.607 909.582 C 310.113 913.476, 310.807 914, 317.465 914 C 322.833 914, 324.105 913.672, 324.965 912.066 C 326.887 908.475, 326.202 908, 319.107 908 C 313.744 908, 312.079 908.351, 311.607 909.582 M 370.207 910.041 C 368.276 913.132, 369.547 914, 376.002 914 C 380.949 914, 382.135 913.646, 383.443 911.777 C 384.299 910.555, 385 909.205, 385 908.777 C 385 908.350, 381.958 908, 378.241 908 C 372.519 908, 371.285 908.313, 370.207 910.041 M 447.035 909.934 C 444.962 913.808, 445.615 914.081, 456.250 913.785 L 466.500 913.500 466.816 910.750 L 467.133 908 457.602 908 C 449.202 908, 447.947 908.230, 447.035 909.934 M 476.655 909.829 C 473.392 913.434, 474.516 914, 484.943 914 C 494.085 914, 495.012 913.821, 496.443 911.777 C 497.299 910.555, 498 909.205, 498 908.777 C 498 908.350, 493.570 908, 488.155 908 C 479.887 908, 478.045 908.293, 476.655 909.829 M 541.200 909.200 C 540.540 909.860, 540 911.210, 540 912.200 C 540 913.748, 540.906 914, 546.465 914 C 551.833 914, 553.105 913.672, 553.965 912.066 C 554.534 911.002, 555 909.652, 555 909.066 C 555 907.571, 542.710 907.690, 541.200 909.200 M 594.598 910.163 C 593.765 911.353, 593.316 912.703, 593.601 913.163 C 593.885 913.623, 596.965 914, 600.444 914 C 606.007 914, 606.958 913.712, 608.333 911.615 C 609.193 910.303, 609.619 908.953, 609.281 908.615 C 608.943 908.277, 605.842 908, 602.390 908 C 597.089 908, 595.878 908.336, 594.598 910.163 M 616.227 910.400 C 615.626 911.720, 615.404 913.070, 615.734 913.400 C 616.063 913.730, 619.168 914, 622.631 914 C 627.835 914, 629.110 913.664, 629.965 912.066 C 631.885 908.479, 631.201 908, 624.161 908 C 617.911 908, 617.227 908.207, 616.227 910.400 M 745.165 910.324 C 743.964 911.602, 743.286 912.952, 743.658 913.324 C 744.029 913.696, 749.898 914, 756.699 914 C 768.604 914, 769.096 913.916, 769.915 911.750 C 770.383 910.513, 770.566 909.163, 770.324 908.750 C 770.081 908.337, 764.812 908, 758.615 908 C 748.118 908, 747.200 908.159, 745.165 910.324 M 821.200 909.200 C 820.540 909.860, 820 911.210, 820 912.200 C 820 913.748, 820.906 914, 826.465 914 C 831.833 914, 833.105 913.672, 833.965 912.066 C 834.534 911.002, 835 909.652, 835 909.066 C 835 907.571, 822.710 907.690, 821.200 909.200 M 885.227 910.400 C 884.626 911.720, 884.404 913.070, 884.734 913.400 C 885.063 913.730, 888.168 914, 891.631 914 C 896.835 914, 898.110 913.664, 898.965 912.066 C 900.885 908.479, 900.201 908, 893.161 908 C 886.911 908, 886.227 908.207, 885.227 910.400 M 944.362 909.500 C 942.882 913.355, 944.522 914, 955.794 914 C 965.850 914, 966.812 913.829, 968.826 911.686 C 970.022 910.413, 971 909.063, 971 908.686 C 971 908.308, 965.136 908, 957.969 908 C 947.308 908, 944.833 908.273, 944.362 909.500 M 54.592 917.500 L 52.954 920 68.477 920 L 84 920 84 917.500 L 84 915 70.115 915 C 56.408 915, 56.209 915.032, 54.592 917.500 M 128.182 917.500 L 127.043 920 133.986 920 C 139.828 920, 141.094 919.693, 141.965 918.066 C 142.534 917.002, 143 915.877, 143 915.566 C 143 915.255, 139.922 915, 136.161 915 C 129.835 915, 129.235 915.188, 128.182 917.500 M 152 916 C 152 916.564, 154.833 917, 158.500 917 C 162.167 917, 165 916.564, 165 916 C 165 915.436, 162.167 915, 158.500 915 C 154.833 915, 152 915.436, 152 916 M 215.655 916.829 C 214.745 917.835, 214 918.972, 214 919.357 C 214 919.742, 220.188 919.931, 227.750 919.778 C 241.151 919.507, 241.508 919.443, 241.820 917.250 C 242.136 915.020, 242.027 915, 229.725 915 C 218.968 915, 217.089 915.244, 215.655 916.829 M 288.035 916.934 C 287.466 917.998, 287 919.123, 287 919.434 C 287 919.745, 290.134 920, 293.965 920 C 299.827 920, 301.093 919.694, 301.965 918.066 C 302.534 917.002, 303 915.877, 303 915.566 C 303 915.255, 299.866 915, 296.035 915 C 290.173 915, 288.907 915.306, 288.035 916.934 M 310.035 916.934 C 309.466 917.998, 309 919.123, 309 919.434 C 309 919.745, 312.134 920, 315.965 920 C 321.827 920, 323.093 919.694, 323.965 918.066 C 324.534 917.002, 325 915.877, 325 915.566 C 325 915.255, 321.866 915, 318.035 915 C 312.173 915, 310.907 915.306, 310.035 916.934 M 368.035 916.934 C 367.466 917.998, 367 919.123, 367 919.434 C 367 919.745, 373.027 920, 380.393 920 C 394.055 920, 395 919.736, 395 915.918 C 395 915.408, 389.242 915, 382.035 915 C 370.241 915, 368.977 915.175, 368.035 916.934 M 445.035 916.934 C 444.466 917.998, 444 919.123, 444 919.434 C 444 919.745, 449.400 920, 456 920 L 468 920 468 917.500 L 468 915 457.035 915 C 447.218 915, 445.962 915.202, 445.035 916.934 M 471.592 917.500 L 469.954 920 481.942 920 C 492.770 920, 494.030 919.813, 494.965 918.066 C 495.534 917.002, 496 915.877, 496 915.566 C 496 915.255, 490.877 915, 484.615 915 C 473.575 915, 473.180 915.076, 471.592 917.500 M 538.607 916.582 C 537.429 919.653, 538.067 920, 544.893 920 C 550.256 920, 551.921 919.649, 552.393 918.418 C 553.571 915.347, 552.933 915, 546.107 915 C 540.744 915, 539.079 915.351, 538.607 916.582 M 592.182 917.500 L 591.043 920 597.986 920 C 603.828 920, 605.094 919.693, 605.965 918.066 C 606.534 917.002, 607 915.877, 607 915.566 C 607 915.255, 603.922 915, 600.161 915 C 593.835 915, 593.235 915.188, 592.182 917.500 M 616 916 C 616 916.564, 618.833 917, 622.500 917 C 626.167 917, 629 916.564, 629 916 C 629 915.436, 626.167 915, 622.500 915 C 618.833 915, 616 915.436, 616 916 M 741 917.500 L 738.651 920 754.326 920 C 763.178 920, 770 919.600, 770 919.082 C 770 918.577, 770.273 917.452, 770.607 916.582 C 771.143 915.186, 769.575 915, 757.281 915 C 743.713 915, 743.287 915.065, 741 917.500 M 818.607 916.582 C 817.429 919.653, 818.067 920, 824.893 920 C 830.256 920, 831.921 919.649, 832.393 918.418 C 833.571 915.347, 832.933 915, 826.107 915 C 820.744 915, 819.079 915.351, 818.607 916.582 M 883.182 917.500 L 882.043 920 889.414 920 C 895.214 920, 896.915 919.663, 897.393 918.418 C 898.571 915.349, 897.934 915, 891.161 915 C 884.835 915, 884.235 915.188, 883.182 917.500 M 945 917.500 C 945 919.978, 945.077 920, 953.845 920 C 961.144 920, 962.979 919.680, 964.345 918.171 C 965.255 917.165, 966 916.040, 966 915.671 C 966 915.302, 961.275 915, 955.500 915 L 945 915 945 917.500 M 51.278 923.250 C 48.376 927.002, 48.366 927, 66.441 927 L 84 927 84 924.500 L 84 922 68.122 922 C 56.603 922, 51.980 922.343, 51.278 923.250 M 126.182 924.500 L 125.043 927 132.414 927 C 138.214 927, 139.915 926.663, 140.393 925.418 C 141.571 922.349, 140.934 922, 134.161 922 C 127.835 922, 127.235 922.188, 126.182 924.500 M 148.241 923.986 C 147.558 925.079, 147 926.204, 147 926.486 C 147 926.769, 150.327 927, 154.393 927 C 160.212 927, 161.915 926.663, 162.393 925.418 C 163.570 922.352, 162.937 922, 156.241 922 C 150.579 922, 149.280 922.323, 148.241 923.986 M 210.684 924.557 L 208.869 927.050 225.184 926.775 C 241.248 926.504, 241.505 926.465, 241.820 924.250 C 242.139 922.002, 242.124 922, 227.320 922.031 C 212.690 922.062, 212.477 922.095, 210.684 924.557 M 286.035 923.934 C 285.466 924.998, 285 926.123, 285 926.434 C 285 926.745, 288.134 927, 291.965 927 C 297.827 927, 299.093 926.694, 299.965 925.066 C 300.534 924.002, 301 922.877, 301 922.566 C 301 922.255, 297.866 922, 294.035 922 C 288.173 922, 286.907 922.306, 286.035 923.934 M 308.200 923.200 C 305.423 925.977, 306.888 927, 313.640 927 C 318.791 927, 320.577 926.608, 321.608 925.250 C 322.339 924.288, 322.951 923.163, 322.968 922.750 C 323.022 921.486, 309.502 921.898, 308.200 923.200 M 366.035 923.934 C 365.466 924.998, 365 926.123, 365 926.434 C 365 926.745, 371.027 927, 378.393 927 C 392.055 927, 393 926.736, 393 922.918 C 393 922.408, 387.242 922, 380.035 922 C 368.241 922, 366.977 922.175, 366.035 923.934 M 443.035 923.934 C 442.466 924.998, 442 926.123, 442 926.434 C 442 926.745, 453.234 927, 466.965 927 C 490.623 927, 491.984 926.899, 492.965 925.066 C 493.534 924.002, 494 922.877, 494 922.566 C 494 922.255, 482.766 922, 469.035 922 C 445.377 922, 444.016 922.101, 443.035 923.934 M 537.200 923.200 C 534.395 926.005, 535.886 927, 542.893 927 C 549.687 927, 551 926.339, 551 922.918 C 551 921.546, 538.601 921.799, 537.200 923.200 M 590.182 924.500 L 589.043 927 596.414 927 C 602.214 927, 603.915 926.663, 604.393 925.418 C 605.571 922.349, 604.934 922, 598.161 922 C 591.835 922, 591.235 922.188, 590.182 924.500 M 612.241 923.986 C 611.558 925.079, 611 926.204, 611 926.486 C 611 926.769, 614.327 927, 618.393 927 C 624.212 927, 625.915 926.663, 626.393 925.418 C 627.570 922.352, 626.937 922, 620.241 922 C 614.579 922, 613.280 922.323, 612.241 923.986 M 736.703 924.531 L 734.907 927 752.453 927 C 762.442 927, 770 926.605, 770 926.082 C 770 925.577, 770.273 924.452, 770.607 923.582 C 771.146 922.178, 769.369 922.004, 754.857 922.031 C 738.633 922.063, 738.485 922.083, 736.703 924.531 M 817.200 923.200 C 814.395 926.005, 815.886 927, 822.893 927 C 829.687 927, 831 926.339, 831 922.918 C 831 921.546, 818.601 921.799, 817.200 923.200 M 881.182 924.500 L 880.043 927 886.821 927 C 893.494 927, 896 925.990, 896 923.300 C 896 922.360, 894.106 922, 889.161 922 C 882.835 922, 882.235 922.188, 881.182 924.500 M 946 922.918 C 946 923.423, 945.727 924.548, 945.393 925.418 C 944.452 927.872, 957.737 927.715, 959.608 925.250 C 960.339 924.288, 960.951 923.163, 960.968 922.750 C 960.986 922.337, 957.625 922, 953.500 922 C 949.375 922, 946 922.413, 946 922.918 M 46.655 930.829 C 45.745 931.835, 45 932.906, 45 933.210 C 45 933.513, 53.775 933.762, 64.500 933.762 C 75.225 933.762, 84 933.402, 84 932.963 C 84 932.523, 84.273 931.452, 84.607 930.582 C 85.147 929.175, 83.177 929, 66.762 929 C 50.156 929, 48.144 929.183, 46.655 930.829 M 124.725 930.942 C 124.446 932.010, 124.469 933.135, 124.775 933.442 C 125.082 933.749, 132.614 934, 141.512 934 C 155.915 934, 157.872 933.799, 159.345 932.171 C 160.255 931.165, 161 930.040, 161 929.671 C 161 929.302, 157.680 929, 153.622 929 C 148.285 929, 145.901 929.415, 145 930.500 C 144.315 931.325, 142.910 932, 141.878 932 C 140.845 932, 140 931.325, 140 930.500 C 140 929.302, 138.513 929, 132.617 929 C 126.148 929, 125.170 929.241, 124.725 930.942 M 207.035 930.934 C 206.466 931.998, 206 933.123, 206 933.434 C 206 933.745, 214.100 934, 224 934 L 242 934 242 931.500 L 242 929 225.035 929 C 209.286 929, 207.996 929.139, 207.035 930.934 M 284.035 930.934 C 283.466 931.998, 283 933.123, 283 933.434 C 283 933.745, 290.859 934, 300.465 934 C 316.708 934, 318.002 933.865, 318.965 932.066 C 319.534 931.002, 320 929.877, 320 929.566 C 320 928.337, 306.393 929.132, 304 930.500 C 300.629 932.427, 297.899 932.427, 298.638 930.500 C 299.117 929.254, 298.017 929, 292.142 929 C 286.174 929, 284.909 929.302, 284.035 930.934 M 364.035 930.934 C 363.466 931.998, 363 933.123, 363 933.434 C 363 933.745, 370.425 934, 379.500 934 C 389.833 934, 396 933.626, 396 933 C 396 932.408, 392.344 932, 387.031 932 C 379.470 932, 378.153 931.765, 378.638 930.500 C 379.117 929.254, 378.017 929, 372.142 929 C 366.174 929, 364.909 929.302, 364.035 930.934 M 441.035 930.934 C 440.466 931.998, 440 933.123, 440 933.434 C 440 934.655, 453.835 933.995, 454.338 932.750 C 454.732 931.772, 454.859 931.769, 454.921 932.737 C 454.981 933.669, 459.293 933.967, 472.486 933.948 C 488.611 933.924, 490.050 933.775, 490.986 932.027 C 491.544 930.984, 492 929.877, 492 929.566 C 492 929.255, 480.766 929, 467.035 929 C 443.377 929, 442.016 929.101, 441.035 930.934 M 534.607 930.582 C 533.429 933.651, 534.066 934, 540.839 934 C 547.165 934, 547.765 933.812, 548.818 931.500 L 549.957 929 542.586 929 C 536.786 929, 535.085 929.337, 534.607 930.582 M 588.725 930.942 C 588.446 932.010, 588.469 933.135, 588.775 933.442 C 589.082 933.749, 596.614 934, 605.512 934 C 619.915 934, 621.872 933.799, 623.345 932.171 C 624.255 931.165, 625 930.040, 625 929.671 C 625 929.302, 621.680 929, 617.622 929 C 612.285 929, 609.901 929.415, 609 930.500 C 608.315 931.325, 606.910 932, 605.878 932 C 604.845 932, 604 931.325, 604 930.500 C 604 929.302, 602.513 929, 596.617 929 C 590.148 929, 589.170 929.241, 588.725 930.942 M 733.035 930.934 C 732.466 931.998, 732 933.076, 732 933.330 C 732 933.584, 740.438 933.787, 750.750 933.780 C 769.431 933.769, 770.945 933.504, 770.985 930.250 C 770.996 929.295, 766.649 929, 752.535 929 C 735.303 929, 734.001 929.129, 733.035 930.934 M 814.607 930.582 C 814.273 931.452, 814 932.577, 814 933.082 C 814 933.610, 820.898 933.912, 830.250 933.792 C 840.735 933.659, 843.213 933.468, 837.235 933.255 C 828.385 932.939, 828.017 932.837, 829.020 930.962 C 830.020 929.094, 829.713 929, 822.642 929 C 816.791 929, 815.085 929.336, 814.607 930.582 M 879.607 930.582 C 879.273 931.452, 879 932.577, 879 933.082 C 879 933.610, 885.898 933.912, 895.250 933.792 C 905.820 933.657, 908.247 933.469, 902.195 933.254 C 893.476 932.944, 892.929 932.800, 893.512 930.962 C 894.090 929.141, 893.634 929, 887.174 929 C 881.750 929, 880.080 929.349, 879.607 930.582 M 944.035 930.934 C 943.466 931.998, 943 933.123, 943 933.434 C 943 933.745, 946.078 934, 949.839 934 C 956.165 934, 956.765 933.812, 957.818 931.500 L 958.957 929 952.014 929 C 946.172 929, 944.906 929.307, 944.035 930.934 M 43.174 937.314 C 41.978 938.587, 41 939.937, 41 940.314 C 41 940.692, 44.305 941, 48.345 941 C 54.191 941, 56.028 940.627, 57.345 939.171 C 60.392 935.805, 59.394 935, 52.174 935 C 46.332 935, 45.035 935.334, 43.174 937.314 M 69.667 935.667 C 69.300 936.033, 69 937.383, 69 938.667 C 69 940.900, 69.315 941, 76.383 941 C 83.122 941, 83.816 940.810, 84.335 938.826 C 84.648 937.631, 84.674 936.281, 84.393 935.826 C 83.786 934.845, 70.631 934.702, 69.667 935.667 M 126.395 935.614 C 125.788 935.865, 125.503 937.179, 125.762 938.535 L 126.233 941 139.442 941 C 151.973 941, 152.764 940.881, 154.835 938.676 C 156.036 937.398, 156.714 936.048, 156.342 935.676 C 155.601 934.935, 128.178 934.878, 126.395 935.614 M 203.655 936.829 C 200.598 940.207, 201.603 941, 208.943 941 C 214.927 941, 216.096 940.701, 217.402 938.837 C 218.235 937.647, 218.684 936.297, 218.399 935.837 C 218.115 935.377, 215.053 935, 211.596 935 C 206.776 935, 204.924 935.427, 203.655 936.829 M 228.035 936.934 C 226.031 940.678, 226.709 941.099, 234.250 940.794 C 241.332 940.507, 241.507 940.436, 241.816 937.750 L 242.133 935 235.602 935 C 230.168 935, 228.896 935.325, 228.035 936.934 M 282.557 937.223 C 281.701 938.445, 281 939.795, 281 940.223 C 281 940.650, 287.793 941, 296.096 941 C 309.774 941, 311.465 940.805, 314.107 938.924 C 315.711 937.781, 316.767 936.431, 316.453 935.924 C 316.139 935.416, 308.734 935, 299.998 935 C 284.717 935, 284.054 935.084, 282.557 937.223 M 362.557 937.223 C 361.701 938.445, 361 939.795, 361 940.223 C 361 940.650, 368.409 941, 377.465 941 C 392.962 941, 393.993 940.881, 395.011 938.979 C 395.606 937.868, 395.820 936.518, 395.487 935.979 C 395.135 935.409, 388.459 935, 379.498 935 C 364.734 935, 364.051 935.090, 362.557 937.223 M 439.557 937.223 C 438.701 938.445, 438 939.795, 438 940.223 C 438 940.650, 441.078 941, 444.839 941 C 451.089 941, 451.773 940.793, 452.773 938.600 C 453.374 937.280, 453.596 935.930, 453.266 935.600 C 452.937 935.270, 450.067 935, 446.890 935 C 442.054 935, 440.860 935.362, 439.557 937.223 M 456.667 935.667 C 456.300 936.033, 456 937.383, 456 938.667 C 456 940.883, 456.342 941, 462.826 941 C 468.676 941, 469.963 940.668, 471.835 938.676 C 473.036 937.398, 473.714 936.048, 473.342 935.676 C 472.467 934.800, 457.541 934.792, 456.667 935.667 M 475.557 937.223 C 474.701 938.445, 474 939.795, 474 940.223 C 474 940.650, 477.042 941, 480.759 941 C 486.481 941, 487.715 940.687, 488.793 938.959 C 490.724 935.868, 489.453 935, 482.998 935 C 478.051 935, 476.865 935.354, 475.557 937.223 M 533.035 936.934 C 531.115 940.521, 531.799 941, 538.839 941 C 545.089 941, 545.773 940.793, 546.773 938.600 C 547.374 937.280, 547.596 935.930, 547.266 935.600 C 546.937 935.270, 543.832 935, 540.369 935 C 535.165 935, 533.890 935.336, 533.035 936.934 M 590.395 935.614 C 589.788 935.865, 589.503 937.179, 589.762 938.535 L 590.233 941 603.442 941 C 615.973 941, 616.764 940.881, 618.835 938.676 C 620.036 937.398, 620.714 936.048, 620.342 935.676 C 619.601 934.935, 592.178 934.878, 590.395 935.614 M 729.165 937.324 C 727.964 938.602, 727.286 939.952, 727.658 940.324 C 728.029 940.696, 731.330 941, 734.992 941 C 740.668 941, 741.974 940.657, 743.835 938.676 C 745.036 937.398, 745.714 936.048, 745.342 935.676 C 744.971 935.304, 741.670 935, 738.008 935 C 732.332 935, 731.026 935.343, 729.165 937.324 M 756.035 936.934 C 754.094 940.562, 754.783 941, 762.433 941 C 768.976 941, 769.941 940.762, 770.497 939.009 C 771.532 935.749, 770.219 935, 763.476 935 C 758.166 935, 756.893 935.331, 756.035 936.934 M 813.035 936.934 C 810.943 940.844, 811.516 941, 827.965 941 C 842.961 941, 843.995 940.877, 845.011 938.979 C 845.606 937.868, 845.820 936.518, 845.487 935.979 C 845.135 935.409, 838.451 935, 829.476 935 C 815.268 935, 813.990 935.150, 813.035 936.934 M 878.035 936.934 C 875.944 940.842, 876.520 941, 892.839 941 C 908.589 941, 908.685 940.986, 909.773 938.600 C 910.374 937.280, 910.596 935.930, 910.266 935.600 C 909.937 935.270, 902.782 935, 894.369 935 C 880.267 935, 878.989 935.151, 878.035 936.934 M 942.557 937.223 C 941.701 938.445, 941 939.795, 941 940.223 C 941 940.650, 944.078 941, 947.839 941 C 954.089 941, 954.773 940.793, 955.773 938.600 C 956.374 937.280, 956.596 935.930, 956.266 935.600 C 955.937 935.270, 953.067 935, 949.890 935 C 945.054 935, 943.860 935.362, 942.557 937.223 M 39.206 944.041 C 37.957 946.042, 38.096 946.076, 46.205 945.791 C 53.152 945.547, 54.531 945.219, 54.812 943.750 C 55.106 942.212, 54.258 942, 47.814 942 C 41.515 942, 40.301 942.288, 39.206 944.041 M 69.623 943.540 C 69.280 944.433, 69 945.371, 69 945.624 C 69 945.877, 72.487 945.953, 76.750 945.792 C 82.842 945.562, 84.500 945.179, 84.500 944 C 84.500 941.693, 70.498 941.260, 69.623 943.540 M 129.487 943.021 C 128.802 944.130, 134.788 947, 137.786 947 C 141.175 947, 150.068 943.919, 149.471 942.952 C 148.673 941.662, 130.288 941.725, 129.487 943.021 M 199.500 944 C 197.705 945.983, 197.753 946, 205.145 946 C 212.055 946, 215 945.044, 215 942.800 C 215 942.360, 211.920 942, 208.155 942 C 202.580 942, 200.974 942.371, 199.500 944 M 228 944 C 228 945.807, 228.667 946, 234.893 946 C 239.884 946, 241.934 945.613, 242.324 944.598 C 243.178 942.372, 242.104 942, 234.833 942 C 228.667 942, 228 942.195, 228 944 M 280.607 943.582 C 280.273 944.452, 280 945.352, 280 945.582 C 280 946.521, 302.936 945.918, 305.851 944.902 C 311.878 942.801, 308.914 942, 295.107 942 C 283.361 942, 281.120 942.244, 280.607 943.582 M 360.607 943.582 C 360.273 944.452, 360 945.363, 360 945.606 C 360 945.849, 367.532 945.925, 376.737 945.774 C 391.755 945.528, 393.509 945.320, 393.811 943.750 C 394.120 942.141, 392.824 942, 377.680 942 C 363.588 942, 361.126 942.228, 360.607 943.582 M 437.607 943.582 C 437.273 944.452, 437 945.352, 437 945.582 C 437 945.812, 440.102 946, 443.893 946 C 450.411 946, 452 945.298, 452 942.418 C 452 942.188, 448.898 942, 445.107 942 C 439.744 942, 438.079 942.351, 437.607 943.582 M 457 944 C 457 945.722, 457.667 946, 461.800 946 C 466.227 946, 469 944.767, 469 942.800 C 469 942.360, 466.300 942, 463 942 C 457.667 942, 457 942.222, 457 944 M 473.607 943.582 C 473.273 944.452, 473 945.352, 473 945.582 C 473 945.812, 476.102 946, 479.893 946 C 486.411 946, 488 945.298, 488 942.418 C 488 942.188, 484.898 942, 481.107 942 C 475.744 942, 474.079 942.351, 473.607 943.582 M 531 944 C 529.974 945.917, 530.240 946, 537.358 946 C 542.808 946, 544.929 945.627, 545.324 944.598 C 546.169 942.396, 545.109 942, 538.369 942 C 533.094 942, 531.896 942.325, 531 944 M 593.487 943.021 C 592.802 944.130, 598.788 947, 601.786 947 C 605.175 947, 614.068 943.919, 613.471 942.952 C 612.673 941.662, 594.288 941.725, 593.487 943.021 M 725.500 944 C 723.704 945.984, 723.753 946, 731.723 946 C 737.222 946, 740.106 945.577, 740.869 944.658 C 742.614 942.555, 741.177 942, 733.988 942 C 728.580 942, 726.966 942.380, 725.500 944 M 755.710 944 C 755.220 945.875, 755.680 946, 763.094 946 C 770.333 946, 771 945.831, 771 944 C 771 942.181, 770.333 942, 763.617 942 C 757.074 942, 756.174 942.228, 755.710 944 M 810.987 944.024 C 809.917 946.024, 810.106 946.045, 826.689 945.774 C 841.753 945.528, 843.509 945.321, 843.811 943.750 C 844.119 942.142, 842.844 942, 828.109 942 C 813.029 942, 812.006 942.121, 810.987 944.024 M 876 944 C 874.950 945.963, 875.240 946, 891.465 946 C 900.559 946, 908 945.812, 908 945.582 C 908 945.352, 908.273 944.452, 908.607 943.582 C 909.145 942.180, 907.387 942, 893.142 942 C 878.094 942, 877.002 942.127, 876 944 M 940.607 943.582 C 940.273 944.452, 940 945.352, 940 945.582 C 940 945.812, 943.102 946, 946.893 946 C 953.411 946, 955 945.298, 955 942.418 C 955 942.188, 951.898 942, 948.107 942 C 942.744 942, 941.079 942.351, 940.607 943.582" stroke="none" fill="#1a3f51" fill-rule="evenodd"/><path d="M 482 243.689 C 435.624 247.190, 387.084 266.567, 344.136 298.725 C 329.986 309.320, 306.211 332.846, 295.847 346.508 C 282.094 364.638, 268.137 387.755, 260.622 404.857 C 251.326 426.008, 242.508 460.275, 240.413 483.393 L 239.723 491.014 243.329 489.507 C 251.848 485.948, 262.076 489.051, 267.487 496.836 C 270.161 500.685, 270.500 501.986, 270.500 508.414 C 270.500 514.772, 270.165 516.095, 267.752 519.258 C 263.191 525.238, 259.340 527.384, 252.369 527.827 C 248.010 528.105, 245.197 527.746, 242.949 526.624 L 239.744 525.026 240.424 532.263 C 242.717 556.650, 249.134 583.504, 257.862 605.238 C 270.462 636.611, 293.059 669.205, 321.135 696.500 C 333.275 708.304, 352.734 725, 354.349 725 C 354.707 725, 355 715.865, 355 704.701 L 355 684.402 351.596 683.171 C 348.090 681.903, 343.745 677.089, 342.026 672.568 C 341.133 670.221, 340.553 670, 335.275 669.994 L 329.500 669.989 318.750 658.571 L 308 647.154 308 615.633 C 308 574.919, 306.304 577.324, 335.210 577.050 L 350.345 576.907 403.453 629.953 C 432.663 659.129, 456.998 683, 457.531 683 C 458.107 683, 458.550 676.964, 458.624 668.100 L 458.749 653.201 393.555 588.101 L 328.361 523 307.615 523 C 295.803 523, 286.070 522.573, 285.014 522.008 C 282.113 520.455, 280.610 514.710, 282.003 510.492 C 282.639 508.563, 283.995 506.538, 285.014 505.992 C 286.096 505.414, 297.049 505, 311.294 505 L 335.719 505 397.057 566 C 430.793 599.550, 458.531 627, 458.698 627 C 458.864 627, 459 620.117, 459 611.705 L 459 596.410 435.577 573.266 C 422.694 560.537, 410.206 548.916, 407.827 547.443 C 399.294 542.159, 394 535.768, 394 530.751 C 394 529.019, 388.158 522.598, 371.750 506.293 C 352.270 486.937, 349.004 484.091, 345.514 483.437 C 343.322 483.025, 328.646 482.971, 312.901 483.315 L 284.274 483.941 279.148 481.386 C 257.895 470.796, 257.950 440.177, 279.241 429.567 C 285.962 426.218, 296.263 425.981, 302.562 429.030 C 312.445 433.814, 319.081 444.180, 319.133 454.912 C 319.148 458.214, 318.870 461.835, 318.513 462.958 C 317.876 464.966, 318.189 465, 337.122 465 L 356.379 465 380.560 488.999 L 404.741 512.997 409.131 512.396 C 415.477 511.526, 421.268 513.402, 424.859 517.493 C 428.658 521.819, 429.572 526.448, 427.957 533.178 L 426.702 538.410 451.858 562.955 L 477.015 587.500 477.007 597.609 C 477 607.525, 477.062 607.796, 480.250 611.755 C 482.038 613.974, 486.088 618.133, 489.250 620.996 L 495 626.201 495 523.789 L 495 421.378 489.750 420.070 C 475.601 416.543, 461.901 404.501, 456.020 390.420 C 445.548 365.342, 456.406 335.732, 480.192 324.508 C 510.327 310.287, 546.865 326.391, 553.915 357 C 555.406 363.474, 555.212 377.613, 553.547 383.869 C 548.572 402.563, 534.160 416.511, 515.750 420.450 L 513 421.038 513 473.128 L 513 525.218 521.229 516.859 C 525.754 512.262, 529.917 507.289, 530.479 505.809 C 531.488 503.149, 540.260 493.804, 559.727 474.649 L 569.739 464.798 573.619 468.940 C 575.754 471.218, 579.209 473.666, 581.299 474.379 L 585.098 475.676 567.799 492.518 L 550.500 509.360 550 526.930 L 549.500 544.500 531.250 562.400 L 513 580.300 513 602.650 C 513 615.156, 513.395 625, 513.896 625 C 514.389 625, 518.214 621.363, 522.396 616.917 L 530 608.834 530 598.674 L 530 588.514 555.478 563.007 L 580.955 537.500 579.420 533.069 C 575.253 521.040, 584.502 510.705, 597.873 512.450 L 602.500 513.054 627.204 489.027 L 651.909 465 670.874 465 L 689.839 465 688.809 461.270 C 685.644 449.807, 692.695 435.321, 704.241 429.567 C 717.909 422.756, 735.343 429.434, 741.923 444 C 744.400 449.484, 744.730 461.317, 742.551 466.532 C 737.155 479.447, 724.282 485.865, 707.616 483.949 C 698.270 482.874, 663.372 482.796, 660.719 483.844 C 659.739 484.231, 648.602 494.420, 635.969 506.486 C 617.561 524.069, 613 528.939, 613 531.016 C 613 535.465, 607.611 542.637, 601.793 545.932 C 598.417 547.843, 587.898 557.443, 572.750 572.437 L 549 595.945 549 611.793 L 549 627.642 610.250 566.314 L 671.500 504.986 696.639 504.993 C 719.902 504.999, 721.955 505.143, 724.139 506.913 C 726.081 508.486, 726.487 509.724, 726.427 513.888 C 726.378 517.314, 725.763 519.605, 724.522 520.975 C 722.789 522.891, 721.510 523, 700.820 523 L 678.950 523 613.975 587.648 L 549 652.295 549.011 668.398 L 549.023 684.500 602.669 630.750 L 656.316 577 672.408 577.006 C 681.259 577.009, 690.141 577.467, 692.147 578.024 C 698.966 579.918, 699 580.107, 699 616.232 L 699 648.534 688.250 659.193 C 677.636 669.717, 677.427 669.861, 671.782 670.537 C 667.342 671.069, 665.926 671.659, 665.444 673.177 C 664.466 676.258, 659.299 681.633, 656.005 682.998 L 653 684.243 653 704.657 C 653 723.796, 653.109 725.011, 654.750 724.113 C 663.598 719.275, 698.764 685.600, 711.341 669.921 C 732.020 644.142, 748.602 612.537, 757.457 582.027 C 760.903 570.153, 766.182 543.027, 767.426 530.800 L 768.006 525.100 764.282 526.655 C 759.551 528.632, 751.658 528.053, 746.410 525.344 C 739.026 521.533, 734.823 512.073, 736.926 504 C 739.510 494.078, 748.348 487.513, 758 488.344 C 761.025 488.604, 764.527 489.139, 765.782 489.533 C 767.940 490.211, 768.036 490.040, 767.550 486.375 C 760.830 435.683, 748.488 400.707, 724.262 363.707 C 680.870 297.436, 604.551 251.247, 526.500 244.020 C 516.299 243.076, 492.475 242.898, 482 243.689 M 495.535 261.104 C 492.503 263.765, 492 264.828, 492 268.569 C 492 276.490, 499.848 282.523, 506.750 279.908 C 519.350 275.135, 516.251 258.017, 502.785 258.004 C 500.052 258.001, 498.135 258.821, 495.535 261.104 M 456.619 274.985 C 444.774 278.735, 442.353 295.411, 452.640 302.401 C 462.156 308.867, 474.647 302.734, 475.770 291.044 C 476.849 279.810, 467.127 271.658, 456.619 274.985 M 538.500 275.861 C 534.286 278.464, 532.354 280.927, 531.203 285.167 C 529.587 291.117, 531.419 297.243, 536.072 301.446 C 539.546 304.585, 540.631 305, 545.355 305 C 554.756 305, 560.995 298.597, 560.998 288.944 C 561 283.899, 558.141 279.052, 553.270 275.840 C 549.632 273.441, 542.401 273.451, 538.500 275.861 M 403.030 288.583 C 398.069 290.735, 396.034 292.824, 393.368 298.500 C 390.470 304.671, 390.266 312.787, 392.865 318.509 C 394.776 322.716, 400.660 328.540, 404.459 329.984 C 407.528 331.151, 407.984 337.026, 407.993 375.532 L 408 406.563 443.500 441.916 L 479 477.268 479 464.104 L 479 450.941 452.529 424.220 L 426.058 397.500 426.029 361.759 L 426 326.017 429.459 321.486 C 435.442 313.648, 435.591 304.346, 429.861 296.370 C 425.363 290.108, 419.422 286.988, 412.093 287.039 C 409.017 287.061, 404.938 287.756, 403.030 288.583 M 585.227 289.116 C 572.404 295.464, 569.082 311.656, 578.348 322.644 L 581 325.789 581 361.720 L 581 397.650 554.547 424.575 L 528.094 451.500 528.047 464.488 L 528 477.476 543.638 461.988 C 552.238 453.470, 568.435 437.275, 579.631 426 L 599.987 405.500 599.996 368.500 L 600.006 331.500 604.753 329 C 610.327 326.064, 615.478 319.047, 616.501 312.996 C 618.065 303.738, 612.198 292.812, 603.556 288.886 C 598.051 286.386, 590.553 286.480, 585.227 289.116 M 348.481 324.394 C 345.052 325.888, 339.326 332.013, 337.933 335.676 C 335.781 341.338, 337.620 350.711, 341.788 355.320 C 346.163 360.157, 356.338 362.811, 362.446 360.707 C 371.710 357.516, 377.485 347.230, 375.063 338.235 C 372.553 328.911, 365.343 323.015, 356.500 323.056 C 353.750 323.068, 350.142 323.670, 348.481 324.394 M 642.500 324.890 C 629.389 330.941, 627.283 347.017, 638.330 356.716 C 643.248 361.035, 648.842 362.477, 654.969 361.007 C 663.967 358.849, 670 351.486, 670 342.664 C 670 336.794, 668.625 333.290, 664.689 329.131 C 658.784 322.892, 650.330 321.276, 642.500 324.890 M 492.205 339.834 C 470.540 347.563, 464.083 375.117, 479.913 392.290 C 492.400 405.837, 516.003 405.698, 528.300 392.006 C 536.475 382.904, 538.862 368.457, 534.037 357.286 C 531.345 351.054, 523.889 343.728, 517.217 340.760 C 510.525 337.782, 499.139 337.361, 492.205 339.834 M 497.637 352.465 C 489.982 355.194, 485 361.929, 485 369.549 C 485 381.737, 496.506 391.152, 507.731 388.149 C 513.877 386.506, 517.618 383.659, 520.195 378.666 C 524.946 369.460, 521.232 357.904, 512.026 353.250 C 506.964 350.691, 503.192 350.485, 497.637 352.465 M 383 354 C 381.900 355.100, 381 357.145, 381 358.545 C 381 361.623, 385.110 366, 388 366 C 390.890 366, 395 361.623, 395 358.545 C 395 355.110, 391.674 352, 388 352 C 386.333 352, 384.111 352.889, 383 354 M 613.557 354.223 C 609.157 360.504, 615.332 367.948, 622.056 364.471 C 624.909 362.996, 625.516 361.632, 625.135 357.553 C 624.634 352.171, 616.610 349.863, 613.557 354.223 M 308.923 357.923 C 303.694 363.152, 305.819 372.734, 312.585 374.432 C 318.316 375.870, 325 370.869, 325 365.143 C 325 361.719, 322.764 357.929, 319.855 356.425 C 315.567 354.207, 312.174 354.672, 308.923 357.923 M 686.831 356.530 C 683.736 358.210, 681.615 363.617, 682.565 367.402 C 683.474 371.025, 688.503 375, 692.177 375 C 694.303 375, 696.247 373.953, 698.728 371.472 C 701.940 368.260, 702.205 367.566, 701.690 363.724 C 700.684 356.228, 693.654 352.824, 686.831 356.530 M 356.612 379.146 C 350.279 380.089, 345.285 384.065, 341.750 390.979 C 338.347 397.636, 338.240 402.826, 341.367 409.541 C 343.709 414.572, 348.962 420, 351.487 420 C 352.441 420, 353.027 422.483, 353.547 428.724 L 354.274 437.448 366.782 449.474 C 384.930 466.922, 383.455 466.633, 382.653 452.588 L 381.982 440.836 376.491 435.818 C 371.223 431.003, 371 430.594, 371 425.746 C 371 421.066, 371.362 420.310, 375.915 415.496 C 384.122 406.819, 385.049 397.749, 378.693 388.316 C 373.516 380.634, 366.418 377.686, 356.612 379.146 M 642.089 379.176 C 625.061 382.165, 618.922 405.874, 632.394 416.623 C 635.754 419.304, 636 419.877, 636 425.034 C 636 430.417, 635.850 430.717, 630.500 436 L 625 441.432 625 452.799 C 625 459.420, 625.390 464.027, 625.935 463.833 C 626.449 463.650, 632.974 457.493, 640.435 450.151 L 654 436.801 654 429.149 L 654 421.496 658.750 417.998 C 677.659 404.072, 665.232 375.115, 642.089 379.176 M 310.923 398.923 C 302.878 406.968, 312.428 420.379, 323.064 415.974 C 329.417 413.342, 331.081 403.927, 326.077 398.923 C 323.684 396.530, 322.310 396, 318.500 396 C 314.690 396, 313.316 396.530, 310.923 398.923 M 682.360 397.460 C 677.018 401.202, 676.888 410.045, 682.111 414.440 C 686.325 417.986, 691.008 417.858, 695.234 414.082 C 698.038 411.577, 698.500 410.504, 698.500 406.500 C 698.500 402.496, 698.038 401.423, 695.234 398.918 C 691.537 395.614, 685.906 394.977, 682.360 397.460 M 278.250 399.491 C 276.462 400.268, 274.966 401.263, 274.923 401.702 C 274.881 402.141, 274.689 403.338, 274.496 404.361 C 273.944 407.285, 276.001 410.758, 279.027 412.011 C 284.443 414.255, 290.284 408.621, 288.470 402.904 C 288.133 401.845, 286.563 400.308, 284.979 399.489 C 281.592 397.737, 282.285 397.737, 278.250 399.491 M 720.455 400.455 C 715.038 405.871, 718.964 412.679, 727.179 412.115 C 732.333 411.762, 733.819 403.576, 729.365 400.073 C 725.905 397.351, 723.453 397.456, 720.455 400.455 M 284.873 444.684 C 281.107 447.021, 279 451.146, 279 456.182 C 279 461.176, 280.850 464.354, 285.011 466.506 C 293.284 470.784, 303.993 464.574, 303.993 455.500 C 303.993 446.355, 292.581 439.900, 284.873 444.684 M 707.400 446.400 C 704.508 449.292, 704 450.495, 704 454.450 C 704 463.155, 708.672 468, 717.068 468 C 720.598 468, 721.848 467.387, 725.244 463.991 C 729.098 460.138, 729.234 459.782, 728.755 454.803 C 728.337 450.447, 727.683 449.098, 724.643 446.312 C 721.537 443.465, 720.311 443, 715.915 443 C 711.431 443, 710.380 443.420, 707.400 446.400 M 420.500 452.789 C 419.400 453.015, 417.488 454.133, 416.250 455.274 C 409.664 461.347, 418.665 472.617, 425.837 467.278 C 433.124 461.853, 429.133 451.019, 420.500 452.789 M 582.308 452.988 C 578.877 454.404, 576.715 458.428, 577.491 461.958 C 578.345 465.847, 581.448 468, 586.199 468 C 590.217 468, 592.244 466.028, 593.505 460.891 C 594.740 455.863, 587.583 450.811, 582.308 452.988 M 433.755 469.523 C 431.418 472.209, 428.754 474.108, 426.568 474.646 L 423.094 475.500 440.047 492.683 L 457 509.866 457 527.202 L 457 544.538 467 554.500 L 477 564.462 477 534.639 L 477 504.816 461.934 489.158 C 453.648 480.546, 444.754 471.645, 442.169 469.377 L 437.468 465.254 433.755 469.523 M 281.380 538.008 C 272.875 539.230, 266.848 545.947, 266.199 554.926 C 264.774 574.630, 289.414 581.864, 300.735 565.065 C 305.701 557.696, 301.869 544.247, 293.524 539.752 C 290.319 538.026, 285.785 537.375, 281.380 538.008 M 713.530 540.282 C 701.255 547.234, 701.228 564.361, 713.480 571.541 C 724.547 578.027, 739.637 571.175, 741.653 558.748 C 742.733 552.096, 737.961 542.583, 731.998 539.499 C 727.542 537.195, 718.287 537.587, 713.530 540.282 M 323.117 541.631 C 314.979 547.330, 318.920 561, 328.701 561 C 333.179 561, 335.634 559.609, 337.490 556.020 C 340.013 551.141, 339.427 547.227, 335.600 543.400 C 331.736 539.536, 327.055 538.872, 323.117 541.631 M 673.763 541.565 C 667.336 545.052, 666.489 553.709, 672.111 558.440 C 680.903 565.838, 693.158 554.995, 687.047 545.225 C 683.894 540.183, 678.864 538.797, 673.763 541.565 M 327 618.071 L 327 640.142 333.729 647.571 C 337.429 651.657, 340.917 654.994, 341.479 654.988 C 342.040 654.981, 343.480 653.462, 344.678 651.612 C 350.748 642.238, 367.572 641.446, 375.688 650.153 C 378.967 653.671, 381.956 660.989, 381.956 665.500 C 381.956 670.134, 379.227 676.660, 376.141 679.405 C 374.686 680.700, 374 682.489, 374 684.991 C 374 688.238, 374.825 689.468, 381 695.430 C 386.553 700.791, 388 702.797, 388 705.134 C 388 709.121, 391.342 715.402, 394.727 717.777 C 400.600 721.897, 406.983 722.742, 414.775 720.429 L 417.049 719.754 416.775 755.906 L 416.500 792.058 420.500 793.030 C 422.700 793.564, 425.850 794.415, 427.500 794.920 C 429.150 795.426, 432.410 796.140, 434.745 796.507 C 437.079 796.874, 439.243 797.585, 439.554 798.087 C 441.684 801.534, 442 794.906, 442 746.736 L 442 694.473 392.726 645.236 L 343.453 596 335.226 596 L 327 596 327 618.071 M 614.500 644.649 L 566 693.299 566 725.355 L 566 757.411 578.359 745.455 L 590.717 733.500 590.859 726.633 C 590.995 720.007, 591.079 719.790, 593.250 720.435 C 598.871 722.106, 603.036 722.149, 607.746 720.584 C 614.852 718.224, 618.954 713.091, 620.555 704.558 C 621.101 701.647, 622.716 699.296, 627.055 695.093 C 634.060 688.306, 635.353 683.777, 631.578 679.252 C 624.873 671.218, 624.078 662.599, 629.250 654.020 C 636.730 641.612, 653.586 640.396, 662.819 651.597 L 665.997 655.453 673.499 648.001 L 681 640.550 681 618.275 L 681 596 672 596 L 662.999 596 614.500 644.649 M 277.750 598.080 C 275.582 599.343, 273 604.191, 273 607 C 273 615.692, 283.932 620.222, 290.077 614.077 C 296.382 607.772, 291.984 596.957, 283.144 597.030 C 281.140 597.047, 278.712 597.519, 277.750 598.080 M 717.923 599.923 C 713.696 604.150, 713.868 609.068, 718.400 613.600 C 726.787 621.987, 738.980 612.597, 733.490 601.980 C 730.440 596.083, 722.776 595.070, 717.923 599.923 M 477.004 723.157 C 477.006 751.396, 477.298 780.852, 477.653 788.616 L 478.299 802.732 485.815 803.367 C 489.949 803.717, 493.463 803.870, 493.625 803.708 C 493.787 803.546, 493.978 777.393, 494.049 745.590 L 494.177 687.766 490.339 683.798 C 488.227 681.615, 484.363 678.026, 481.750 675.822 L 477 671.814 477.004 723.157 M 521.832 679.750 L 514.210 687.500 513.511 745.885 L 512.812 804.269 515.656 803.576 C 517.220 803.194, 521.087 802.630, 524.250 802.321 L 530 801.760 530 736.880 C 530 701.196, 529.877 672, 529.727 672 C 529.576 672, 526.023 675.487, 521.832 679.750 M 598.014 690.098 C 596.055 690.517, 593.318 692.199, 591.764 693.938 C 587.052 699.212, 588.460 708.450, 594.588 712.465 C 598.305 714.901, 606.172 714.127, 609.504 710.997 C 618.837 702.228, 610.678 687.387, 598.014 690.098 M 400.241 691.325 C 396.661 693.313, 394.833 696.728, 394.833 701.427 C 394.833 707.242, 397.134 711.361, 401.553 713.458 C 406.139 715.634, 410.490 714.910, 414.864 711.243 C 420.662 706.381, 420.197 696.412, 413.964 691.974 C 410.777 689.705, 403.756 689.373, 400.241 691.325 M 374.117 748.044 L 374.345 774.588 379.922 777.225 C 382.990 778.676, 387.750 780.847, 390.500 782.051 C 393.250 783.254, 396.400 784.709, 397.500 785.283 C 399.256 786.200, 399.341 786.134, 398.191 784.740 C 397.158 783.487, 397.031 779.234, 397.591 764.557 L 398.300 745.961 386.095 733.731 L 373.890 721.500 374.117 748.044 M 620.930 734.658 L 610 745.317 610 765.167 L 610 785.017 612.250 783.758 C 613.487 783.066, 614.725 782.223, 615 781.885 C 615.275 781.546, 616.625 780.948, 618 780.555 C 619.375 780.162, 621.850 779.262, 623.500 778.554 C 625.150 777.847, 627.962 776.648, 629.750 775.890 L 633 774.512 633 749.256 C 633 735.365, 632.743 724, 632.430 724 C 632.116 724, 626.941 728.796, 620.930 734.658" stroke="none" fill="#edf4f5" fill-rule="evenodd"/></svg>